<svg xmlns="http://www.w3.org/2000/svg" width="152" height="27" viewBox="0 0 152 27"><g fill="none" data-name="Layer 4"><path d="M42.065 22.423V4.603a.44.44 0 0 1 .294-.436.432.432 0 0 1 .184-.021h2.654c.32 0 .477.134.477.456l.267 6.638c0 .317.158.48.477.48h7.04c.32 0 .478-.139.478-.48l.267-6.638c0-.322.163-.456.478-.456h2.653a.432.432 0 0 1 .447.272.44.44 0 0 1 .03.184v17.82a.44.44 0 0 1-.286.458.432.432 0 0 1-.19.023H54.7c-.32 0-.478-.135-.478-.48l-.286-7.052c0-.322-.162-.48-.477-.48h-7.06c-.32 0-.477.134-.477.48l-.267 7.037c0 .322-.163.48-.478.48H42.52a.433.433 0 0 1-.454-.465zm21.417-3.718V4.602c0-.322.134-.456.454-.456h14.796a.432.432 0 0 1 .425.278.44.44 0 0 1 .029.178v4.28c0 .322-.134.48-.454.48h-1.885a.584.584 0 0 1-.611-.427l-.344-1.12a.586.586 0 0 0-.615-.427H67.92c-.324 0-.477.134-.477.456v3.77c0 .323.134.457.477.457h6.826c.32 0 .477.125.477.447v1.768a.444.444 0 0 1-.28.483.435.435 0 0 1-.197.026l-6.826.807a.433.433 0 0 0-.465.308.44.44 0 0 0-.012.2v2.062a1.396 1.396 0 0 0 .392 1.054 1.378 1.378 0 0 0 1.04.415h9.88c.315 0 .454.135.454.48v2.326a.446.446 0 0 1-.272.447.436.436 0 0 1-.182.033h-11.13c-2.507-.048-4.144-1.705-4.144-4.222zm21.241 0V4.602c0-.322.133-.456.448-.456h3.084c.32 0 .453.134.453.456v13.57a1.4 1.4 0 0 0 .892 1.382c.183.07.378.099.573.087h5.828c.363 0 .444-.105.478-.48l.534-3.77c.053-.327.186-.481.506-.481h2.11c.32 0 .453.13.453.48v7.032a.444.444 0 0 1-.271.448.436.436 0 0 1-.182.033H88.87c-2.477-.024-4.147-1.681-4.147-4.198zm30.185 3.635l2.601-8.77c.11-.276.11-.584 0-.86l-2.334-8.084c-.081-.293.081-.48.4-.48h2.282c.373 0 .478.076.611.374l2.95 6.773a.6.6 0 0 0 .64.427h2.133a.584.584 0 0 0 .63-.427l2.96-6.773c.133-.298.238-.374.615-.374h2.282c.315 0 .477.187.396.48l-2.343 8.084a1.213 1.213 0 0 0 0 .86l2.61 8.77c.082.294-.028.539-.348.539h-2.573a.57.57 0 0 1-.64-.433l-2.959-7.075a.6.6 0 0 0-.63-.427h-2.133a.608.608 0 0 0-.64.427l-2.95 7.06a.577.577 0 0 1-.64.433h-2.572c-.32.015-.43-.23-.348-.523zm-5.742-18.194h-3.084a.455.455 0 0 0-.453.456v17.82c0 .252.203.457.453.457h3.084c.25 0 .453-.205.453-.457V4.602a.455.455 0 0 0-.453-.456zm33.865 8.714c-.09 0-.129-.04-.168-.13l-1.732-3.56h-1.91a.067.067 0 0 0-.075.077v3.482a.126.126 0 0 1-.08.122.123.123 0 0 1-.05.008h-.878a.123.123 0 0 1-.12-.08.126.126 0 0 1-.008-.05V4.271a.126.126 0 0 1 .078-.122.123.123 0 0 1 .05-.008h3.146c1.618 0 2.711 1 2.711 2.512a2.39 2.39 0 0 1-.445 1.483c-.309.43-.753.743-1.259.89l1.856 3.68c.048.076 0 .153-.076.153h-1.04zm-.177-6.207c0-.908-.602-1.44-1.608-1.44h-2.024a.067.067 0 0 0-.074.045.068.068 0 0 0-.002.031v2.743a.068.068 0 0 0 .045.074c.01.003.02.004.03.003h2.025c.992-.005 1.608-.543 1.608-1.456zm3.68-2.383a.124.124 0 0 1 .13-.13h5.211a.126.126 0 0 1 .118.08.121.121 0 0 1 .006.05v.807a.121.121 0 0 1-.006.05.122.122 0 0 1-.118.08h-4.129a.067.067 0 0 0-.03.003.071.071 0 0 0-.043.043.066.066 0 0 0-.003.03V7.85a.066.066 0 0 0 .002.031.071.071 0 0 0 .043.043c.01.004.021.004.031.003h3.504a.12.12 0 0 1 .092.033.121.121 0 0 1 .037.092v.811a.122.122 0 0 1-.037.092.114.114 0 0 1-.092.033h-3.504a.067.067 0 0 0-.03.003.071.071 0 0 0-.043.043.066.066 0 0 0-.003.031v2.656a.066.066 0 0 0 .002.032.071.071 0 0 0 .043.043c.01.003.021.004.031.002h4.13a.114.114 0 0 1 .124.125v.807a.121.121 0 0 1-.007.05.122.122 0 0 1-.118.08h-5.236a.123.123 0 0 1-.12-.08.11.11 0 0 1-.009-.05l.024-8.459z" fill="#fff" data-name="Vector"/><g fill="#FF4000" data-name="Vector"><path d="M12.248 8.584L5.48 4.654V8.21l3.708 2.157 3.06-1.782zM5.48 18.815v3.554l15.245-8.857-3.06-1.777-12.185 7.08zm9.126-.38l6.768 3.93V18.81l-3.709-2.152-3.06 1.777zM9.188 15.29l12.186-7.081V4.655L6.129 13.512l3.06 1.777z"/><path d="M25.775 0H1.065a1.06 1.06 0 0 0-.754.314C.112.514 0 .787 0 1.07v24.867c.003.283.116.553.315.751.2.2.469.31.75.31h24.71a1.053 1.053 0 0 0 .995-.65c.054-.13.083-.27.083-.41V1.07a1.077 1.077 0 0 0-.667-.994 1.05 1.05 0 0 0-.411-.077zm-3.222 8.584a.532.532 0 0 1-.267.48l-3.437 1.984 3.441 1.998a.48.48 0 0 1 .196.197.535.535 0 0 1-.196.73l-3.441 1.998 3.441 1.998a.536.536 0 0 1 .263.48v5.05a.535.535 0 0 1-.53.518.503.503 0 0 1-.262-.072l-8.334-4.823-8.334 4.842a.475.475 0 0 1-.263.072.533.533 0 0 1-.534-.538v-5.063a.526.526 0 0 1 .272-.48l3.436-2.003-3.44-1.974a.538.538 0 0 1 0-.927l3.44-2.003-3.436-2.003a.531.531 0 0 1-.272-.48v-5.04a.54.54 0 0 1 .33-.496.532.532 0 0 1 .467.03l8.334 4.847 8.329-4.841a.527.527 0 0 1 .733.206.536.536 0 0 1 .064.274v5.039z"/></g></g></svg>